<?xml version="1.0" encoding="UTF-8" standalone="no"?>
<!DOCTYPE svg PUBLIC "-//W3C//DTD SVG 1.1//EN" "http://www.w3.org/Graphics/SVG/1.1/DTD/svg11.dtd">
<svg width="100%" height="100%" viewBox="0 0 1834 1409" version="1.1" xmlns="http://www.w3.org/2000/svg" xmlns:xlink="http://www.w3.org/1999/xlink" xml:space="preserve" xmlns:serif="http://www.serif.com/" style="fill-rule:evenodd;clip-rule:evenodd;stroke-miterlimit:3;">
    <g transform="matrix(4.16667,0,0,4.16667,0,0)">
        <g id="NOK">
            <rect id="Background" x="0" y="0" width="440" height="338" style="fill:url(#_Linear1);fill-rule:nonzero;"/>
            <g id="warning-sign" transform="matrix(2.77474,0,0,2.77474,53.3771,11.1223)">
                <path id="path1" d="M2.35,84.42L45.28,10.2L45.45,9.93C47.234,7.024 49.642,4.551 52.5,2.69C55.208,0.953 58.353,0.02 61.57,0C64.803,-0.004 67.968,0.931 70.68,2.69C73.526,4.557 75.918,7.038 77.68,9.95C77.807,10.163 77.927,10.373 78.04,10.58L120.27,83.92L120.51,84.36C122.09,87.523 122.902,91.014 122.88,94.55C122.859,97.47 122.114,100.339 120.71,102.9C119.131,105.757 116.711,108.062 113.78,109.5C113.59,109.6 113.39,109.68 113.2,109.76C110.33,111.009 107.219,111.607 104.09,111.51L16.96,111.51C14.842,111.493 12.743,111.104 10.76,110.36C7.607,109.165 4.897,107.028 3,104.24C1.09,101.411 0.047,98.084 -0,94.67C-0.049,91.682 0.484,88.714 1.57,85.93C1.77,85.4 2.028,84.893 2.34,84.42L2.35,84.42Z" style="fill:rgb(207,31,37);fill-rule:nonzero;"/>
                <path id="path2-3" d="M9,88.75L52.12,14.16C57.36,5.91 65.66,5.7 70.99,14.16L113.42,87.85C116.81,94.66 115.13,103.85 104.09,103.62L17.61,103.62C10.35,103.8 5.67,97.43 9,88.75Z" style="fill:rgb(254,201,1);"/>
                <path id="path3" d="M57.57,83.78C58.492,82.867 59.707,82.308 61,82.2C61.817,82.143 62.636,82.266 63.4,82.56C64.151,82.847 64.832,83.29 65.4,83.86C66.713,85.165 67.292,87.043 66.94,88.86C66.852,89.324 66.711,89.777 66.52,90.21C65.595,92.243 63.532,93.53 61.3,93.47C60.515,93.451 59.742,93.271 59.03,92.94C57.776,92.342 56.793,91.291 56.28,90C56.106,89.594 55.985,89.167 55.92,88.73C55.851,88.297 55.831,87.858 55.86,87.42C55.942,86.727 56.134,86.052 56.43,85.42C56.698,84.827 57.086,84.295 57.57,83.86L57.57,83.78ZM65.72,73.54C65.53,78.33 57.41,78.34 57.23,73.54C56.41,65.33 54.31,44.2 54.37,36.49C54.44,34.11 56.37,32.7 58.93,32.16C60.581,31.832 62.279,31.832 63.93,32.16C66.54,32.72 68.58,34.16 68.58,36.6L68.58,36.84L65.72,73.54Z" style="fill:rgb(1,1,1);fill-rule:nonzero;"/>
            </g>
            <g id="stop" transform="matrix(0.113858,0,0,-0.113858,350.652,87.6519)">
                <path id="path6612" d="M225.208,0.4C216.29,0.4 207.747,3.939 201.439,10.244L10.244,201.439C3.939,207.744 0.4,216.29 0.4,225.197L0.4,495.601C0.4,504.51 3.939,513.053 10.244,519.358L201.439,710.565C207.747,716.861 216.29,720.4 225.208,720.4L495.603,720.4C504.51,720.4 513.065,716.861 519.361,710.565L710.567,519.358C716.861,513.053 720.4,504.51 720.4,495.601L720.4,225.197C720.4,216.29 716.861,207.744 710.567,201.439L519.361,10.244C513.065,3.939 504.51,0.4 495.603,0.4L225.208,0.4" style="fill:white;stroke:black;stroke-width:0.8px;"/>
                <path id="path6614" d="M226.201,36.403L36.406,226.199L36.406,494.61L226.201,684.405L494.61,684.405L684.405,494.61L684.405,226.199L494.61,36.403L226.201,36.403" style="fill:rgb(193,18,28);"/>
                <path id="path6616" d="M147.719,489.652C181.267,489.652 208.511,462.207 208.511,428.427L208.511,414.797L172.516,414.797L172.516,428.427C172.516,442.225 161.44,453.391 147.719,453.391C133.999,453.391 122.922,442.225 122.922,428.427C122.922,413.045 121.065,396.588 138.454,389.4L170.583,376.302C193.463,366.987 208.511,344.644 208.511,319.676L208.511,292.414C208.511,256.663 179.922,231.156 145.486,231.156C111.938,231.156 84.695,258.634 84.695,292.414L84.695,306.012L120.69,306.012L120.69,292.414C120.69,259.523 172.516,259.214 172.516,292.414L172.516,319.676C172.516,329.803 166.324,339.019 157.085,342.807L124.922,355.905C101.965,365.104 86.928,387.64 86.928,412.53L86.928,428.427C86.928,462.207 114.133,489.652 147.719,489.652ZM422.28,489.652C455.75,489.652 483.005,462.207 483.005,428.427L483.005,292.414C483.005,258.595 455.75,231.156 422.28,231.156C388.732,231.156 361.488,258.595 361.488,292.414L361.488,428.427C361.488,462.207 388.732,489.652 422.28,489.652ZM222.008,487.389L343.591,487.389L343.591,453.393L300.831,453.393L300.831,233.525L264.836,233.525L264.836,453.393L222.008,453.393L222.008,487.389ZM518.999,487.389L577.558,487.389C609.869,487.389 636.116,460.973 636.116,428.43L636.116,392.169C636.116,359.703 609.869,333.277 577.558,333.277L554.961,333.277L554.961,233.525L518.999,233.525L518.999,487.389ZM422.28,453.393C408.559,453.393 397.484,442.228 397.484,428.43L397.484,292.416C397.484,278.696 408.559,267.52 422.28,267.52C435.807,267.52 446.91,278.696 446.91,292.416L446.91,428.43C446.91,442.228 435.807,453.393 422.28,453.393ZM554.961,453.393L554.961,367.172L577.558,367.172C591.163,367.172 602.254,378.332 602.254,392.169L602.254,428.43C602.254,442.228 591.163,453.393 577.558,453.393L554.961,453.393Z" style="fill:white;"/>
            </g>
            <rect id="rectal-rectangle" x="36.602" y="164.389" width="376.409" height="40.242" style="fill:rgb(174,132,218);"/>
            <g id="warning-text-en" transform="matrix(1,0,0,1,57.4249,189.711)">
                <text x="0px" y="0px" style="font-family:'Arial-BoldMT', 'Arial', sans-serif;font-weight:700;font-size:13.333px;">W<tspan x="11.849px 21.478px " y="0px 0px ">AR</tspan>NING: DO</text>
                <text x="96.289px" y="0px" style="font-family:'Arial-BoldMT', 'Arial', sans-serif;font-weight:700;font-size:13.333px;fill:rgb(255,0,0);">NOT</text>
                <g transform="matrix(13.3333,0,0,13.3333,337.297,0)">
                </g>
                <text x="128.138px" y="0px" style="font-family:'Arial-BoldMT', 'Arial', sans-serif;font-weight:700;font-size:13.333px;">ENTER <tspan x="176.79px 185.683px " y="0px 0px ">YO</tspan>UR P<tspan x="226.92px 236.549px " y="0px 0px ">AS</tspan>SWORD HERE</text>
            </g>
            <g id="stop_hand" transform="matrix(1,0,0,1,23.852,256.121)">
                <g id="path1-3" transform="matrix(1,-0.414213,0.414213,1,-13.2548,13.2548)">
                    <path d="M32,0L54.627,9.373L64,32L54.627,54.627L32,64L9.373,54.627L0,32L9.373,9.373L32,0Z" style="fill-rule:nonzero;"/>
                </g>
                <g id="path2-6" transform="matrix(0.96875,-0.401269,0.401269,0.96875,-11.8406,13.8406)">
                    <path d="M32,0L54.627,9.373L64,32L54.627,54.627L32,64L9.373,54.627L0,32L9.373,9.373L32,0Z" style="fill:rgb(45,9,9);fill-rule:nonzero;"/>
                </g>
                <g id="path3-7" transform="matrix(0.9375,-0.388325,0.388325,0.9375,-10.4264,14.4264)">
                    <path d="M32,0L54.627,9.373L64,32L54.627,54.627L32,64L9.373,54.627L0,32L9.373,9.373L32,0Z" style="fill:rgb(90,18,18);fill-rule:nonzero;"/>
                </g>
                <g id="path4-5" transform="matrix(0.90625,-0.375381,0.375381,0.90625,-9.01218,15.0122)">
                    <path d="M32,0L54.627,9.373L64,32L54.627,54.627L32,64L9.373,54.627L0,32L9.373,9.373L32,0L32,0Z" style="fill:rgb(134,27,27);fill-rule:nonzero;"/>
                </g>
                <path id="path5" d="M43.733,4.135L60,20.593L59.865,43.733L43.407,60L20.267,59.865L4,43.407L4.135,20.267L20.593,4L43.733,4.135Z" style="fill:rgb(179,36,36);fill-rule:nonzero;"/>
                <path id="path6" d="M32.329,53.898C24.457,53.898 17.016,53.898 17.016,32.898C17,13.898 20.47,17.561 22.12,19.118L22.225,15.839C22.303,13.411 28.075,13.558 28.08,15.472L28.094,12.465C28.109,9.283 34.786,9.605 34.842,11.716L34.949,15.818C35.01,13.506 40.199,12.632 40.354,17.131C40.354,24.131 40.293,31.666 40.2,33.898C42.906,36.898 45.888,22.256 51.116,24.943C53.453,27.381 44.351,44.568 43.367,46.381C42.428,48.111 38.232,53.898 32.329,53.898Z" style="fill:white;fill-rule:nonzero;stroke:black;stroke-width:2px;stroke-linejoin:round;stroke-miterlimit:4;"/>
                <path id="path7" d="M28.5,12.898L28.5,30.898" style="fill:none;fill-rule:nonzero;stroke:black;stroke-width:1px;stroke-miterlimit:4;"/>
                <path id="path8" d="M34.375,12.898L34.5,31.898" style="fill:none;fill-rule:nonzero;stroke:black;stroke-width:1px;stroke-miterlimit:4;"/>
                <path id="path9" d="M37.5,37.398C37.5,37.398 32.5,38.398 30.5,48.398" style="fill:none;fill-rule:nonzero;stroke:black;stroke-width:1px;stroke-miterlimit:4;"/>
                <path id="path10" d="M22.5,17.898L22.5,33.023" style="fill:none;fill-rule:nonzero;stroke:black;stroke-width:1px;stroke-miterlimit:4;"/>
                <path id="path11" d="M19.875,35.023C24.125,30.419 32.25,30.627 36.625,32.148" style="fill:none;fill-rule:nonzero;stroke:black;stroke-width:1px;stroke-miterlimit:4;"/>
            </g>
        </g>
    </g>
    <defs>
        <linearGradient id="_Linear1" x1="0" y1="0" x2="1" y2="0" gradientUnits="userSpaceOnUse" gradientTransform="matrix(-2.08642,-230.102,230.102,-2.08642,233.115,284.945)"><stop offset="0" style="stop-color:rgb(173,0,0);stop-opacity:1"/><stop offset="1" style="stop-color:rgb(255,117,0);stop-opacity:1"/></linearGradient>
    </defs>
</svg>
